<svg width="24" height="24" viewBox="0 0 24 24" fill="none" xmlns="http://www.w3.org/2000/svg">
<path d="M5.5 16.0192C6.32817 16.0192 7.13392 16.1131 7.91725 16.301C8.70058 16.4888 9.47817 16.7834 10.25 17.1847V7.35371C9.5475 6.89605 8.78725 6.5528 7.96925 6.32396C7.15125 6.09513 6.32817 5.98071 5.5 5.98071C4.9 5.98071 4.33942 6.0278 3.81825 6.12196C3.29708 6.2163 2.7615 6.37046 2.2115 6.58446C2.13467 6.61013 2.08017 6.64705 2.048 6.69521C2.016 6.74321 2 6.79605 2 6.85371V16.3115C2 16.4013 2.03208 16.467 2.09625 16.5087C2.16025 16.5504 2.23075 16.5551 2.30775 16.523C2.78208 16.3615 3.28267 16.2371 3.8095 16.15C4.3365 16.0628 4.9 16.0192 5.5 16.0192ZM11.75 17.1847C12.5218 16.7834 13.2994 16.4888 14.0828 16.301C14.8661 16.1131 15.6718 16.0192 16.5 16.0192C17.1 16.0192 17.6635 16.0628 18.1905 16.15C18.7173 16.2371 19.2179 16.3615 19.6923 16.523C19.7693 16.5551 19.8398 16.5504 19.9038 16.5087C19.9679 16.467 20 16.4013 20 16.3115V6.85371C20 6.79605 19.984 6.7448 19.952 6.69996C19.9198 6.65513 19.8653 6.61663 19.7885 6.58446C19.2385 6.37046 18.7029 6.2163 18.1818 6.12196C17.6606 6.0278 17.1 5.98071 16.5 5.98071C15.6718 5.98071 14.8487 6.09513 14.0307 6.32396C13.2127 6.5528 12.4525 6.89605 11.75 7.35371V17.1847ZM11 18.9652C10.8052 18.9652 10.6228 18.9409 10.453 18.8922C10.283 18.8435 10.1224 18.7788 9.97125 18.698C9.28275 18.3083 8.5625 18.0144 7.8105 17.8162C7.05867 17.6182 6.2885 17.5192 5.5 17.5192C4.88983 17.5192 4.2905 17.5868 3.702 17.722C3.1135 17.8573 2.54617 18.0564 2 18.3192C1.64367 18.4832 1.30458 18.4572 0.98275 18.2412C0.660917 18.0252 0.5 17.7191 0.5 17.323V6.46546C0.5 6.24996 0.5555 6.04771 0.6665 5.85871C0.777333 5.66955 0.93725 5.5333 1.14625 5.44996C1.82308 5.12046 2.5285 4.87655 3.2625 4.71821C3.9965 4.55988 4.74233 4.48071 5.5 4.48071C6.473 4.48071 7.42367 4.61371 8.352 4.87971C9.28017 5.14588 10.1628 5.53855 11 6.05771C11.8372 5.53855 12.7198 5.14588 13.648 4.87971C14.5763 4.61371 15.527 4.48071 16.5 4.48071C17.2577 4.48071 18.0035 4.55988 18.7375 4.71821C19.4715 4.87655 20.1769 5.12046 20.8538 5.44996C21.0628 5.5333 21.2227 5.66955 21.3335 5.85871C21.4445 6.04771 21.5 6.24996 21.5 6.46546V17.323C21.5 17.7191 21.3327 18.022 20.998 18.2317C20.6633 18.4412 20.3114 18.464 19.9423 18.3C19.4026 18.0435 18.8433 17.8492 18.2645 17.7172C17.6857 17.5852 17.0975 17.5192 16.5 17.5192C15.7115 17.5192 14.9413 17.6182 14.1895 17.8162C13.4375 18.0144 12.7173 18.3083 12.0288 18.698C11.8776 18.7788 11.717 18.8435 11.547 18.8922C11.3772 18.9409 11.1948 18.9652 11 18.9652ZM12.9423 8.86146C12.9423 8.74996 12.982 8.63588 13.0615 8.51921C13.141 8.40255 13.2314 8.32238 13.3328 8.27871C13.8289 8.08005 14.3395 7.92946 14.8645 7.82696C15.3895 7.7243 15.9347 7.67296 16.5 7.67296C16.827 7.67296 17.1433 7.69221 17.449 7.73071C17.7548 7.76921 18.0628 7.8218 18.373 7.88846C18.491 7.9153 18.5929 7.97938 18.6788 8.08071C18.7648 8.18205 18.8078 8.29996 18.8078 8.43446C18.8078 8.66013 18.7369 8.82521 18.5953 8.92971C18.4536 9.03421 18.2699 9.05955 18.0443 9.00571C17.8044 8.95571 17.5553 8.9198 17.297 8.89796C17.0387 8.87613 16.773 8.86521 16.5 8.86521C16.0153 8.86521 15.5407 8.91171 15.076 9.00471C14.6112 9.09771 14.1679 9.22371 13.7462 9.38271C13.5102 9.47371 13.3173 9.46855 13.1673 9.36721C13.0173 9.26605 12.9423 9.09746 12.9423 8.86146ZM12.9423 14.323C12.9423 14.2115 12.982 14.0958 13.0615 13.976C13.141 13.8561 13.2314 13.7744 13.3328 13.7307C13.8161 13.532 14.3267 13.383 14.8645 13.2837C15.4023 13.1844 15.9475 13.1347 16.5 13.1347C16.827 13.1347 17.1433 13.1539 17.449 13.1922C17.7548 13.2307 18.0628 13.2833 18.373 13.35C18.491 13.377 18.5929 13.441 18.6788 13.5422C18.7648 13.6435 18.8078 13.7615 18.8078 13.8962C18.8078 14.1217 18.7369 14.2867 18.5953 14.3912C18.4536 14.4957 18.2699 14.521 18.0443 14.4672C17.8044 14.4172 17.5553 14.3813 17.297 14.3595C17.0387 14.3378 16.773 14.327 16.5 14.327C16.0218 14.327 15.5519 14.3725 15.0902 14.4635C14.6287 14.5545 14.1871 14.6826 13.7652 14.848C13.5294 14.9455 13.3333 14.943 13.177 14.8405C13.0205 14.7378 12.9423 14.5653 12.9423 14.323ZM12.9423 11.602C12.9423 11.4905 12.982 11.3764 13.0615 11.2597C13.141 11.143 13.2314 11.0629 13.3328 11.0192C13.8289 10.8205 14.3395 10.6699 14.8645 10.5672C15.3895 10.4647 15.9347 10.4135 16.5 10.4135C16.827 10.4135 17.1433 10.4327 17.449 10.4712C17.7548 10.5095 18.0628 10.562 18.373 10.6287C18.491 10.6557 18.5929 10.7199 18.6788 10.8212C18.7648 10.9224 18.8078 11.0403 18.8078 11.175C18.8078 11.4006 18.7369 11.5657 18.5953 11.6702C18.4536 11.7747 18.2699 11.8 18.0443 11.7462C17.8044 11.6962 17.5553 11.6603 17.297 11.6385C17.0387 11.6166 16.773 11.6057 16.5 11.6057C16.0153 11.6057 15.5407 11.6522 15.076 11.7452C14.6112 11.838 14.1679 11.964 13.7462 12.123C13.5102 12.214 13.3173 12.2089 13.1673 12.1077C13.0173 12.0064 12.9423 11.8378 12.9423 11.602Z" fill="url(#paint0_linear_27_277)"/>
<defs>
<linearGradient id="paint0_linear_27_277" x1="11" y1="4.48071" x2="11" y2="18.9652" gradientUnits="userSpaceOnUse">
<stop stop-color="#F8E139"/>
<stop offset="1" stop-color="#FFC60D"/>
</linearGradient>
</defs>
</svg>
