<svg width="24" height="24" viewBox="0 0 24 24" fill="none" xmlns="http://www.w3.org/2000/svg">
<path d="M14.623 18.45L13.6673 21.0288C13.6134 21.1673 13.524 21.2804 13.399 21.3683C13.274 21.4561 13.1339 21.5 12.9788 21.5C12.7224 21.5 12.5173 21.3945 12.3635 21.1835C12.2097 20.9727 12.1833 20.7423 12.2845 20.4923L16.1713 10.4615C16.2353 10.323 16.3282 10.2115 16.45 10.127C16.5718 10.0423 16.7071 10 16.8558 10H17.4135C17.5622 10 17.6974 10.0423 17.8193 10.127C17.9409 10.2115 18.0338 10.323 18.098 10.4615L21.9845 20.5078C22.0858 20.7474 22.0622 20.9727 21.9135 21.1835C21.7647 21.3945 21.5621 21.5 21.3058 21.5C21.1404 21.5 20.9978 21.4561 20.8778 21.3683C20.7579 21.2804 20.666 21.1622 20.602 21.0135L19.6463 18.45H14.623ZM8.98276 13.5903L4.53651 18.0308C4.39801 18.1756 4.22651 18.2506 4.02201 18.2558C3.81768 18.2609 3.63793 18.1859 3.48276 18.0308C3.33793 17.8859 3.26551 17.7103 3.26551 17.5038C3.26551 17.2974 3.33793 17.1218 3.48276 16.977L7.92876 12.5213C7.35193 11.9379 6.80359 11.2456 6.28376 10.4443C5.76376 9.64293 5.33584 8.82818 5.00001 8.00002H6.59026C6.87876 8.60518 7.22976 9.21035 7.64326 9.81552C8.05676 10.4205 8.50326 10.9711 8.98276 11.4673C9.69293 10.7506 10.3647 9.88043 10.998 8.85677C11.6313 7.8331 12.0788 6.88085 12.3405 6.00002H2.44226C2.22943 6.00002 2.05126 5.92818 1.90776 5.78452C1.76409 5.64102 1.69226 5.46285 1.69226 5.25002C1.69226 5.03718 1.76409 4.85902 1.90776 4.71552C2.05126 4.57185 2.22943 4.50002 2.44226 4.50002H8.25001V3.63477C8.25001 3.42193 8.32184 3.24368 8.46551 3.10002C8.60901 2.95652 8.78718 2.88477 9.00001 2.88477C9.21284 2.88477 9.39101 2.95652 9.53451 3.10002C9.67818 3.24368 9.75001 3.42193 9.75001 3.63477V4.50002H15.5578C15.7706 4.50002 15.9488 4.57185 16.0923 4.71552C16.2359 4.85902 16.3078 5.03718 16.3078 5.25002C16.3078 5.46285 16.2359 5.64102 16.0923 5.78452C15.9488 5.92818 15.7706 6.00002 15.5578 6.00002H13.8595C13.5352 7.12302 13.0183 8.29702 12.3088 9.52202C11.5991 10.747 10.8417 11.757 10.0365 12.552L12.5038 15.0788L11.9365 16.6193L8.98276 13.5903ZM15.1038 17.123H19.1653L17.1345 11.6673L15.1038 17.123Z" fill="url(#paint0_linear_27_287)"/>
<defs>
<linearGradient id="paint0_linear_27_287" x1="11.8692" y1="2.88477" x2="11.8692" y2="21.5" gradientUnits="userSpaceOnUse">
<stop stop-color="#F8E139"/>
<stop offset="1" stop-color="#FFC60D"/>
</linearGradient>
</defs>
</svg>
