<svg id="Part-Usage--Streamline-Carbon" xmlns="http://www.w3.org/2000/svg" viewBox="0 0 16 16" height="16" width="16"><desc>Part Usage Streamline Icon: https://streamlinehq.com</desc><defs></defs><path d="M10.4168 8.40405c-1.2204 0 -1.9168 0.4557 -1.9168 1.37535 0 0.7993 0.51575 1.32385 1.427 1.32385 0.6704 0 1.1605 -0.30095 1.3065 -0.87695h0.0517c0.06855 0.46425 0.3608 0.7737 0.83375 0.7737h0.61015v-0.8767h-0.4469v-2.1146c0 -1.02295 -0.64455 -1.59895 -1.85665 -1.59895 -0.9026 0 -1.42695 0.34395 -1.75365 0.8597l0.6534 0.58445c0.2148 -0.30945 0.5072 -0.5672 1.0227 -0.5672 0.5847 0 0.834 0.2922 0.834 0.79085v0.32655h-0.7652Zm0.7652 1.255c0 0.42125 -0.3954 0.64465 -0.88525 0.64465 -0.43005 0 -0.6793 -0.1804 -0.6793 -0.54165v-0.146c0 -0.3524 0.28395 -0.5501 0.8597 -0.5501h0.7049v0.5931Z" stroke-width="0.5" fill="#000000"></path><path d="M4.636 8.7135h1.56435c1.109 0 1.7794 -0.73925 1.7794 -1.85665 0 -1.10905 -0.6704 -1.85685 -1.7794 -1.85685H3.5013v6H4.636v-2.2865Zm0 -2.72505h1.46125c0.43835 0 0.7049 0.2321 0.7049 0.6707v0.3954c0 0.43835 -0.26655 0.679 -0.7049 0.679H4.636v-1.7451Z" stroke-width="0.5" fill="#000000"></path><path d="M10.5 15H5.5c-2.4813 0 -4.5 -2.0187 -4.5 -4.5V5.5c0 -2.4813 2.0187 -4.5 4.5 -4.5h5c2.4813 0 4.5 2.0187 4.5 4.5v5c0 2.4813 -2.0187 4.5 -4.5 4.5ZM5.5 2c-1.92995 0 -3.5 1.57005 -3.5 3.5v5c0 1.92995 1.57005 3.5 3.5 3.5h5c1.92995 0 3.5 -1.57005 3.5 -3.5V5.5c0 -1.92995 -1.57005 -3.5 -3.5 -3.5H5.5Z" stroke-width="0.5" fill="#000000"></path><path id="_Transparent_Rectangle_" d="M0 0h16v16H0Z" stroke-width="0.5" fill="none"></path></svg>