<svg width="141" height="31" viewBox="0 0 141 31" fill="none" xmlns="http://www.w3.org/2000/svg">
<path d="M22.024 5.05199L15.076 30H7.73198L0.531982 5.05199H6.75998L11.512 25.392L15.976 5.05199H22.024Z" fill="#141414"/>
<path d="M29.4512 10.884V30H23.7632V10.884H29.4512ZM26.5712 0.803986C27.5552 0.803986 28.3592 1.11599 28.9832 1.73999C29.6312 2.33999 29.9552 3.10799 29.9552 4.04399C29.9552 4.97999 29.6312 5.75999 28.9832 6.38399C28.3592 6.98399 27.5552 7.28399 26.5712 7.28399C25.5872 7.28399 24.7832 6.98399 24.1592 6.38399C23.5352 5.75999 23.2232 4.97999 23.2232 4.04399C23.2232 3.10799 23.5352 2.33999 24.1592 1.73999C24.7832 1.11599 25.5872 0.803986 26.5712 0.803986Z" fill="#141414"/>
<path d="M39.6114 2.67599V30H33.9234V3.28799L39.6114 2.67599ZM51.4194 10.884L45.6234 19.272L51.8874 30H45.4794L39.7914 19.56L45.6234 10.884H51.4194Z" fill="#141414"/>
<path d="M65.7747 29.1C65.0787 29.58 64.2627 29.952 63.3267 30.216C62.4147 30.48 61.5027 30.612 60.5907 30.612C56.4147 30.588 54.3267 28.284 54.3267 23.7V14.844H51.6267V10.884H54.3267V6.74399L60.0147 6.09599V10.884H64.4067L63.7947 14.844H60.0147V23.628C60.0147 24.516 60.1587 25.152 60.4467 25.536C60.7347 25.92 61.1907 26.112 61.8147 26.112C62.4627 26.112 63.1467 25.908 63.8667 25.5L65.7747 29.1Z" fill="#141414"/>
<path d="M75.3206 10.272C78.2486 10.272 80.5406 11.172 82.1966 12.972C83.8526 14.748 84.6806 17.244 84.6806 20.46C84.6806 22.5 84.2966 24.288 83.5286 25.824C82.7846 27.336 81.7046 28.512 80.2886 29.352C78.8966 30.192 77.2406 30.612 75.3206 30.612C72.4166 30.612 70.1246 29.724 68.4446 27.948C66.7886 26.148 65.9606 23.64 65.9606 20.424C65.9606 18.384 66.3326 16.608 67.0766 15.096C67.8446 13.56 68.9246 12.372 70.3166 11.532C71.7326 10.692 73.4006 10.272 75.3206 10.272ZM75.3206 14.448C74.1686 14.448 73.3046 14.94 72.7286 15.924C72.1526 16.884 71.8646 18.384 71.8646 20.424C71.8646 22.512 72.1406 24.036 72.6926 24.996C73.2686 25.956 74.1446 26.436 75.3206 26.436C76.4726 26.436 77.3366 25.956 77.9126 24.996C78.4886 24.012 78.7766 22.5 78.7766 20.46C78.7766 18.372 78.4886 16.848 77.9126 15.888C77.3606 14.928 76.4966 14.448 75.3206 14.448Z" fill="#141414"/>
<path d="M98.432 10.344C99.128 10.344 99.764 10.428 100.34 10.596L99.44 16.104C98.72 15.936 98.144 15.852 97.712 15.852C96.584 15.852 95.72 16.248 95.12 17.04C94.544 17.808 94.088 18.972 93.752 20.532V30H88.064V10.884H93.032L93.5 14.592C93.932 13.272 94.58 12.24 95.444 11.496C96.332 10.728 97.328 10.344 98.432 10.344Z" fill="#141414"/>
<path d="M121.305 5.05199L114.357 30H107.013L99.8132 5.05199H106.041L110.793 25.392L115.257 5.05199H121.305Z" fill="#141414"/>
<path d="M128.732 2.67599V30H123.044V3.28799L128.732 2.67599ZM140.54 10.884L134.744 19.272L141.008 30H134.6L128.912 19.56L134.744 10.884H140.54Z" fill="#141414"/>
</svg>
